# xmcd
# Track frame offsets:
# 150
# 18731
# 40079
# 52005
# 69198
# 91998
# 111186
# 129945
# 148780
# 167361
# 188709
# 200635
# 217828
# 240628
# 259816
# 278575
#
# Disc length: 3965 seconds
# Revision: 0
# Processed by: cddbd v1.5.1PL0 Copyright (c) Steve Scherf et al.
# Submitted via: VisiTrax 2.9.6.190 - For more info visit www.synapsa.com
#
DISCID=de0f7b10
DTITLE=Various Artist - HOT country female
DYEAR=2003
DGENRE=Country
TTITLE0=Carolyn Dawn Johnson - I don't want you to go (kareoke)
TTITLE1=Sars Evans - I keep looking (kareoke)
TTITLE2=Dixie chicks - Some days you gotta dance (kareoke)
TTITLE3=LeAnn Rimes - Can't fight the moonlight (kareoke)
TTITLE4=Lee Ann Womack - I hope you dance (kareoke)
TTITLE5=Martina Mcbride - Blessed (kareoke)
TTITLE6=Kellie Coffey - When you lie next to me (kareoke)
TTITLE7=Jo Dee Messina w/Tim McGraw - Bring on the rain (kareoke)
TTITLE8=Carolyn Dawn Johnson - I don't want you to go (vocals)
TTITLE9=Sara Evans - I keep looking (vocals)
TTITLE10=Dixie chicks - Some days you gotta dance (vocals)
TTITLE11=LeAnn Rimes - Can't fight the moonlight (vocals)
TTITLE12=Lee Ann Womack - I hope you dance (vocals)
TTITLE13=Martina Mcbride - Blessed (vocals)
TTITLE14=Kellie Coffey - When you llie next to me (vocals)
TTITLE15=Jo Dee Messina w/Tim McGraw - Bring on the rain (vocals)
EXTD=KareokeBay CD
EXTT0=
EXTT1=
EXTT2=
EXTT3=
EXTT4=
EXTT5=
EXTT6=
EXTT7=
EXTT8=
EXTT9=
EXTT10=
EXTT11=
EXTT12=
EXTT13=
EXTT14=
EXTT15=
PLAYORDER=
